<?xml version="1.0" encoding="utf-8"?>
<!-- Generator: Adobe Illustrator 24.3.0, SVG Export Plug-In . SVG Version: 6.00 Build 0)  -->
<svg version="1.1" id="Layer_1" xmlns="http://www.w3.org/2000/svg" xmlns:xlink="http://www.w3.org/1999/xlink" x="0px" y="0px"
	 viewBox="0 0 24 24" style="enable-background:new 0 0 24 24;" xml:space="preserve">
<g>
	<g>
		<path d="M12.5,9.4c0.4-0.3,0.8-0.5,1.2-0.8c0.6-0.4,1.2-0.5,1.8-0.5c0.6,0,1.2,0,1.8,0.1c1.9,0.2,3.2,2.1,2.8,4
			c-0.7,3.3-1.4,6.7-2.1,10c-0.2,0.7-0.6,1.2-1.4,1.3c-0.8,0.1-1.3-0.2-1.8-0.8c-0.7-1-1.4-2.1-2.1-3.1c-0.1-0.1-0.1-0.2-0.2-0.3
			c-0.5,0.8-1,1.5-1.5,2.2c-0.3,0.4-0.5,0.8-0.8,1.2c-0.4,0.6-1,0.9-1.8,0.8c-0.8-0.1-1.2-0.6-1.4-1.4c-0.7-3.3-1.5-6.7-2.1-10
			c-0.4-2,1.2-4,3.3-4c0.5,0,1-0.1,1.5,0c0.5,0.1,1.1,0.3,1.6,0.5C11.7,8.8,12.1,9.1,12.5,9.4z"/>
		<path d="M22.1,8.8c0,0.2,0,0.4,0,0.6c-0.3,0-0.6,0-0.9,0c0-0.2,0-0.4,0-0.6c-0.2,0-0.4,0-0.6,0c0-0.1,0-0.2,0-0.4
			c0.3,0,0.5,0,0.8,0c0-1.2,0-2.5,0-3.7c0.2,0,0.3,0,0.5-0.1c0-0.9,0-1.9,0-2.8c-1.3,0-2.6,0-3.9,0c0.5,0.7,0.4,1.5,0.4,2.2
			c0,1.2,0,2.5,0,3.8c-1.4,0-3,0-4.5,0c-0.1,0.6-0.4,0.6-0.9,0.6c-0.2,0-0.3,0-0.5,0c-0.4,0-0.7-0.1-0.8-0.6c-1.9,0-3.9,0-5.9,0
			c0-0.2,0-0.3,0-0.5c0-1.6,0-3.3,0-4.9c0-0.9-0.4-1.3-1.3-1.4c-1.1,0-2.2,0-3.3,0c-0.1,0-0.3,0-0.5,0c0-0.2,0-0.4,0-0.6
			c7.6,0,15.3,0,22.9,0c0,0.4,0,0.8,0,1.3c-0.4,0-0.8,0-1.2,0c0,2.1,0,4.1,0,6.2c0.2,0,0.4,0,0.6,0c0,0.2,0,0.5,0,0.7
			C22.6,8.8,22.4,8.8,22.1,8.8z M6.7,2.8c0,1.3,0,2.6,0,3.9c0.4,0,0.8,0,1.2,0c0-1.3,0-2.6,0-3.9C7.5,2.8,7.1,2.8,6.7,2.8z"/>
	</g>
</g>
</svg>
